<svg width="2192" height="2218" viewBox="0 0 2192 2218" fill="none" xmlns="http://www.w3.org/2000/svg">
<path d="M0 0H2192V2218H0V0Z" fill="#333333"/>
<path d="M1324.79 1233.4C1324.79 1268.48 1289.99 1296.92 1247.08 1296.92C1204.15 1296.92 1169.36 1268.48 1169.36 1233.4C1169.36 1198.32 1204.15 1169.88 1247.08 1169.88C1289.99 1169.88 1324.79 1198.32 1324.79 1233.4ZM1227.65 1082.53C1227.65 1113.23 1197.2 1138.12 1159.64 1138.12C1122.09 1138.12 1091.64 1113.23 1091.64 1082.53C1091.64 1051.84 1122.09 1026.95 1159.64 1026.95C1197.2 1026.95 1227.65 1051.84 1227.65 1082.53ZM1091.64 1201.64C1091.64 1254.26 1039.45 1296.92 975.067 1296.92C910.691 1296.92 858.497 1254.26 858.497 1201.64C858.497 1149.01 910.691 1106.35 975.067 1106.35C1039.45 1106.35 1091.64 1149.01 1091.64 1201.64ZM1052.79 995.191C1052.79 1039.04 1009.3 1074.6 955.644 1074.6C901.992 1074.6 858.497 1039.04 858.497 995.191C858.497 951.337 901.992 915.785 955.644 915.785C1009.3 915.785 1052.79 951.337 1052.79 995.191ZM1324.79 963.427C1324.79 989.739 1298.69 1011.07 1266.5 1011.07C1234.31 1011.07 1208.21 989.739 1208.21 963.426C1208.21 937.114 1234.31 915.785 1266.5 915.785C1298.69 915.785 1324.79 937.114 1324.79 963.427ZM1305.36 1122.23C1305.36 1131 1296.66 1138.11 1285.93 1138.11C1275.2 1138.11 1266.5 1131 1266.5 1122.23C1266.5 1113.46 1275.2 1106.35 1285.93 1106.35C1296.66 1106.35 1305.36 1113.46 1305.36 1122.23ZM1159.64 971.368C1159.64 984.527 1146.6 995.191 1130.5 995.191C1114.41 995.191 1101.36 984.527 1101.36 971.368C1101.36 958.215 1114.41 947.55 1130.5 947.55C1146.6 947.55 1159.64 958.214 1159.64 971.368Z" fill="#A975FF"/>
<path fill-rule="evenodd" clip-rule="evenodd" d="M1152.65 1567.98C1544.45 1567.98 1884.42 1335.85 2053.68 1196C2121.88 1139.66 2121.88 1045.5 2053.68 989.152C1884.42 849.305 1544.45 617.176 1152.65 617.176C760.841 617.176 420.873 849.305 251.609 989.153C183.412 1045.5 183.412 1139.66 251.61 1196C420.873 1335.85 760.841 1567.98 1152.65 1567.98ZM1152.65 1424.25C1350.55 1424.25 1510.97 1275.76 1510.97 1092.58C1510.97 909.397 1350.55 760.901 1152.65 760.901C954.75 760.901 794.324 909.397 794.324 1092.58C794.324 1275.76 954.75 1424.25 1152.65 1424.25Z" fill="#A975FF"/>
</svg>
